<?xml version="1.0" encoding="utf-8"?>
<!-- Generator: Adobe Illustrator 24.3.0, SVG Export Plug-In . SVG Version: 6.00 Build 0)  -->
<svg version="1.1" id="Layer_1" xmlns="http://www.w3.org/2000/svg" xmlns:xlink="http://www.w3.org/1999/xlink" x="0px" y="0px"
	 viewBox="0 0 595.28 841.89" style="enable-background:new 0 0 595.28 841.89;" xml:space="preserve">
<style type="text/css">
	.st0{fill:#FFFFFF;stroke:#000000;stroke-miterlimit:10;}
	.st1{fill:#365579;}
	.st2{fill:#4182C3;}
	.st3{fill:#FFFFFF;}
</style>
<path class="st0" d="M156.65,461.01"/>
<path class="st0" d="M145.25,482.54"/>
<g>
	<polygon class="st1" points="358.56,419.47 358.45,425.47 363.88,423.39 	"/>
	<g>
		<path class="st2" d="M268.68,350.34c31.7,24.38,63.41,48.75,95.11,73.13c8.12-7.78,16.23-15.56,24.35-23.34
			c-30.63-23.85-61.26-47.69-91.89-71.54C287.06,335.84,277.87,343.09,268.68,350.34z"/>
		<path class="st0" d="M325.04,413.97"/>
		<path class="st0" d="M378.07,411.45"/>
		<path class="st1" d="M268.74,350.1c-0.23,2.61-0.45,5.22-0.68,7.83c2.4-1.02,4.79-2.03,7.19-3.05
			C273.08,353.29,270.91,351.7,268.74,350.1z"/>
		<g>
			<path class="st3" d="M319.88,360.84c0.71,0.52,1.2,1.05,1.39,1.64c0.19,0.59,0.11,1.23-0.35,1.87c-0.92,1.28-2.34,1.19-3.39,0.59
				c-0.17-0.09-0.38-0.24-0.48-0.33l-0.61-0.73l-1.08,1.49c-0.6,0.84-0.55,0.95,0.3,1.68l-0.2,0.28l-2.78-2.03l0.2-0.28
				c0.84,0.51,0.98,0.49,1.57-0.32l2.78-3.86c0.63-0.88,0.57-0.98-0.13-1.57l0.21-0.29L319.88,360.84z M316.68,363.54
				c0.09,0.14,0.31,0.41,0.62,0.64c0.62,0.45,1.65,0.69,2.54-0.56c0.77-1.06,0.41-2-0.38-2.58c-0.27-0.2-0.52-0.3-0.63-0.28
				c-0.12,0.02-0.23,0.1-0.43,0.37L316.68,363.54z"/>
			<path class="st3" d="M323.73,366.69c1.26,0.92,1.49,2.59,0.63,3.77c-1.14,1.58-2.88,1.46-3.88,0.72
				c-1.42-1.04-1.47-2.71-0.69-3.79C320.94,365.79,322.79,366,323.73,366.69L323.73,366.69z M323.37,366.92
				c-0.57-0.42-1.52-0.22-2.32,0.88c-0.89,1.24-1.01,2.53-0.21,3.12c0.57,0.42,1.37,0.4,2.35-0.97c0.84-1.17,1.02-2.41,0.19-3.02
				L323.37,366.92z"/>
			<path class="st3" d="M328.79,370.63c0.27,0.03,0.5,0.12,0.63,0.21c1.12,0.82,1.14,2.18,0.44,3.16c-1.05,1.45-2.92,1.53-4.37,0.84
				c-0.29-0.22-0.49-0.5-0.58-0.67l-0.93,1.29c-0.52,0.72-0.49,0.83,0.23,1.46l-0.19,0.27l-2.42-1.77l0.19-0.27
				c0.68,0.41,0.82,0.4,1.28-0.23l3.18-4.42c0.44-0.62,0.41-0.68-0.12-1.19l0.17-0.24c0.47,0.24,1.18,0.49,1.81,0.67l-0.56,0.78
				L328.79,370.63z M325.41,373.46c0.06,0.38,0.32,0.82,0.65,1.06c0.83,0.6,1.87,0.23,2.61-0.79c0.77-1.07,0.56-2.1-0.13-2.6
				c-0.3-0.22-0.83-0.29-1.24-0.29L325.41,373.46z"/>
			<path class="st3" d="M333.77,380.36c-0.25-0.14-0.57-0.28-0.89-0.42c-0.33-0.13-0.64-0.25-0.88-0.35l-0.03-0.1l0.5-0.7
				c-0.35,0-0.66,0.03-1.06-0.01c-0.41-0.05-0.68-0.12-0.96-0.33c-0.69-0.51-0.95-1.33-0.19-2.38l1.35-1.87
				c0.39-0.54,0.34-0.64,0.13-0.89l-0.22-0.26l0.17-0.23c0.21,0.14,0.5,0.3,0.79,0.48c0.3,0.17,0.63,0.34,0.82,0.44
				c-0.24,0.28-0.58,0.75-1.05,1.4l-0.95,1.32c-0.59,0.82-0.36,1.37,0.08,1.69c0.35,0.25,0.79,0.38,1.33,0.31l1.63-2.26
				c0.39-0.54,0.34-0.66,0.06-0.95l-0.31-0.32l0.17-0.23c0.28,0.2,0.66,0.42,0.99,0.6c0.31,0.19,0.58,0.32,0.75,0.41l-2.33,3.23
				c-0.37,0.51-0.34,0.63,0.03,0.94l0.26,0.21L333.77,380.36z"/>
			<path class="st3" d="M333.88,380.79l0.19-0.26c0.67,0.38,0.8,0.39,1.27-0.27l3.31-4.59c0.48-0.66,0.43-0.73-0.14-1.24l0.17-0.24
				c0.58,0.33,1.33,0.63,1.78,0.78l-4.27,5.92c-0.48,0.66-0.43,0.79,0.17,1.32l-0.19,0.26L333.88,380.79z"/>
			<path class="st3" d="M339.69,385.22c-0.19-0.14-0.34-0.38-0.37-0.56c-0.04-0.22,0-0.4,0.06-0.59c-0.58-0.04-1.3-0.02-1.58-0.23
				c-0.74-0.54-0.8-1.48-0.36-2.1c0.35-0.49,0.83-0.59,1.49-0.37c0.78,0.26,1.65,0.51,1.99,0.48l0.13-0.17
				c0.51-0.7,0.46-1.31-0.01-1.66c-0.17-0.13-0.37-0.17-0.54-0.13c-0.22,0.04-0.46,0.19-0.78,0.44c-0.19,0.13-0.34,0.12-0.49,0.01
				c-0.19-0.14-0.31-0.53-0.14-0.77c0.11-0.15,0.32-0.18,0.61-0.17c0.43,0,1.38,0.12,2.01,0.41c0.31,0.23,0.55,0.51,0.65,0.85
				c0.14,0.58-0.04,1.06-0.42,1.58l-1.27,1.76c-0.31,0.44-0.25,0.71-0.07,0.84c0.11,0.08,0.28,0.13,0.43,0.15l-0.09,0.33
				L339.69,385.22z M340.68,382.19c-0.27-0.05-0.81-0.15-1.08-0.21c-0.51-0.11-0.86-0.08-1.12,0.29c-0.37,0.52-0.15,1.03,0.14,1.24
				c0.23,0.17,0.66,0.26,0.96,0.21L340.68,382.19z"/>
			<path class="st3" d="M344.97,383.82c0.71-0.3,1.49-0.52,1.95-0.19c0.36,0.26,0.41,0.7,0.24,0.94c-0.16,0.23-0.44,0.33-0.73,0.28
				c-0.15-0.04-0.23-0.12-0.25-0.22c-0.05-0.25-0.12-0.4-0.29-0.52c-0.25-0.19-0.76-0.12-1.35,0.25l-1.26,1.75
				c-0.46,0.64-0.46,0.74,0.27,1.36l-0.19,0.26l-2.36-1.73l0.19-0.26c0.64,0.38,0.77,0.38,1.24-0.26l1.46-2.03
				c0.45-0.62,0.42-0.7-0.07-1.19l0.16-0.22c0.55,0.28,1.1,0.51,1.75,0.67l-0.79,1.09L344.97,383.82z"/>
		</g>
	</g>
</g>
</svg>
